<svg width="30" height="30" viewBox="0 0 30 30" fill="none" xmlns="http://www.w3.org/2000/svg">
<path d="M17.5397 16.455C17.734 16.2997 17.982 16.2279 18.2292 16.2554C18.4764 16.283 18.7025 16.4076 18.8578 16.6019C19.0131 16.7961 19.0849 17.0442 19.0574 17.2914C19.0298 17.5386 18.9052 17.7647 18.711 17.92L15.5935 20.4137C15.4267 20.5503 15.2178 20.6249 15.0022 20.625H14.9922C14.7805 20.6237 14.5756 20.5505 14.411 20.4175L11.2897 17.92C11.0954 17.7647 10.9708 17.5386 10.9433 17.2914C10.9157 17.0442 10.9875 16.7961 11.1428 16.6019C11.2981 16.4076 11.5243 16.283 11.7715 16.2554C12.0187 16.2279 12.2667 16.2997 12.461 16.455L14.0622 17.7375V13.4375C14.0622 13.1889 14.161 12.9504 14.3368 12.7746C14.5126 12.5988 14.7511 12.5 14.9997 12.5C15.2483 12.5 15.4868 12.5988 15.6626 12.7746C15.8384 12.9504 15.9372 13.1889 15.9372 13.4375V17.7375L17.5397 16.455Z" fill="#F8F8F8"/>
<path fill-rule="evenodd" clip-rule="evenodd" d="M8.75 2.8125C7.83832 2.8125 6.96398 3.17466 6.31932 3.81932C5.67466 4.46398 5.3125 5.33832 5.3125 6.25V23.75C5.3125 24.6617 5.67466 25.536 6.31932 26.1807C6.96398 26.8253 7.83832 27.1875 8.75 27.1875H21.25C22.1617 27.1875 23.036 26.8253 23.6807 26.1807C24.3253 25.536 24.6875 24.6617 24.6875 23.75V10.2475C24.6875 9.79009 24.5441 9.34418 24.2775 8.9725L20.51 3.725C20.3076 3.44284 20.0409 3.21291 19.7321 3.05424C19.4232 2.89556 19.081 2.8127 18.7337 2.8125H8.75ZM7.1875 6.25C7.1875 5.3875 7.8875 4.6875 8.75 4.6875H17.8125V10.1838C17.8125 10.7013 18.2325 11.1213 18.75 11.1213H22.8125V23.75C22.8125 24.6125 22.1125 25.3125 21.25 25.3125H8.75C7.8875 25.3125 7.1875 24.6125 7.1875 23.75V6.25Z" fill="#F8F8F8"/>
</svg>
