<svg width="30" height="30" viewBox="0 0 30 30" fill="none" xmlns="http://www.w3.org/2000/svg">
<g clip-path="url(#clip0_171_92)">
<path fill-rule="evenodd" clip-rule="evenodd" d="M26.8189 6.77015C26.9376 6.95041 26.9905 7.16613 26.9687 7.38089C26.9468 7.59564 26.8515 7.79627 26.6989 7.9489L15.2076 19.4389C15.0901 19.5564 14.9434 19.6405 14.7826 19.6827L9.99636 20.9327C9.83815 20.9739 9.6719 20.9731 9.5141 20.9302C9.35631 20.8874 9.21247 20.804 9.09685 20.6884C8.98124 20.5728 8.89787 20.429 8.85502 20.2712C8.81218 20.1134 8.81135 19.9471 8.85261 19.7889L10.1026 15.0039C10.1391 14.8603 10.2079 14.7269 10.3039 14.6139L21.8376 3.08765C22.0134 2.91209 22.2517 2.81348 22.5001 2.81348C22.7486 2.81348 22.9868 2.91209 23.1626 3.08765L26.6989 6.62265C26.7437 6.66766 26.7839 6.71708 26.8189 6.77015ZM24.7101 7.28515L22.5001 5.0764L11.8526 15.7239L11.0714 18.7152L14.0626 17.9339L24.7101 7.28515Z" fill="#F8F8F8"/>
<path d="M21.0264 35.5336C21.6295 30.3877 21.822 25.2021 21.6023 20.0257C21.5975 19.9038 21.6179 19.7822 21.6624 19.6685C21.7068 19.5548 21.7742 19.4514 21.8604 19.3649L24.0316 17.1973C24.0909 17.1378 24.1662 17.0966 24.2485 17.0787C24.3307 17.0608 24.4163 17.067 24.4951 17.0966C24.5738 17.1261 24.6424 17.1777 24.6925 17.2452C24.7426 17.3127 24.772 17.3932 24.7774 17.4771C25.1861 23.6257 25.031 29.7987 24.314 35.9191C23.7933 40.3732 20.21 43.8647 15.7683 44.3603C8.05739 45.2128 0.27577 45.2128 -7.43515 44.3603C-11.8746 43.8647 -15.4602 40.3732 -15.9809 35.9191C-16.8957 28.111 -16.8957 20.2231 -15.9809 12.415C-15.4602 7.9609 -11.8768 4.46943 -7.43515 3.9738C-1.58272 3.32591 4.31381 3.16896 10.1925 3.50459C10.2766 3.51063 10.3573 3.5406 10.4249 3.59097C10.4925 3.64134 10.5442 3.71 10.5739 3.7888C10.6036 3.86761 10.6101 3.95327 10.5926 4.03564C10.575 4.11801 10.5342 4.19363 10.4749 4.25355L8.28389 6.43875C8.19808 6.52411 8.09566 6.59101 7.98295 6.63534C7.87024 6.67966 7.74964 6.70047 7.62856 6.69648C2.723 6.53 -2.18821 6.71773 -7.06666 7.2582C-8.49219 7.41572 -9.8229 8.0484 -10.8438 9.05405C-11.8648 10.0597 -12.5163 11.3796 -12.6932 12.8005C-13.5779 20.3525 -13.5779 27.9816 -12.6932 35.5336C-12.5163 36.9545 -11.8648 38.2744 -10.8438 39.28C-9.8229 40.2857 -8.49219 40.9184 -7.06666 41.0759C0.336114 41.902 7.99705 41.902 15.402 41.0759C16.8276 40.9184 18.1583 40.2857 19.1792 39.28C20.2001 38.2744 20.8495 36.9545 21.0264 35.5336Z" fill="#F8F8F8"/>
</g>
<defs>
<clipPath id="clip0_171_92">
<rect width="30" height="30" fill="white"/>
</clipPath>
</defs>
</svg>
