<svg width="41" height="41" viewBox="0 0 41 41" fill="none" xmlns="http://www.w3.org/2000/svg">
<rect x="0.5" y="0.5" width="40" height="40" stroke="white"/>
<path d="M10.983 4.12266C11.1984 3.86561 11.3044 3.53435 11.2783 3.20001C11.2521 2.86567 11.096 2.55489 10.8433 2.3344C10.5906 2.11392 10.2615 2.00129 9.92674 2.02071C9.59194 2.04012 9.2781 2.19003 9.05259 2.43825L6.84542 4.96658C5.59387 6.40084 4.88637 8.22945 4.84667 10.1326L4.7493 14.7775C4.74582 14.9458 4.77552 15.1131 4.83669 15.2699C4.89787 15.4266 4.98933 15.5698 5.10584 15.6913C5.22236 15.8127 5.36165 15.91 5.51577 15.9776C5.66989 16.0452 5.83581 16.0818 6.00407 16.0853C6.17232 16.0887 6.33962 16.059 6.4964 15.9979C6.65318 15.9367 6.79637 15.8452 6.9178 15.7287C7.03924 15.6122 7.13653 15.4729 7.20413 15.3188C7.27174 15.1647 7.30832 14.9988 7.3118 14.8305L7.40746 10.1872C7.43487 8.88503 7.91924 7.6339 8.77584 6.65271L10.983 4.12266Z" fill="white"/>
<path fill-rule="evenodd" clip-rule="evenodd" d="M10.6546 13.1545C10.7693 11.3268 11.5763 9.61155 12.9112 8.3579C14.2461 7.10425 16.0086 6.40645 17.8398 6.40658H18.7914V5.12533C18.7914 4.67225 18.9714 4.23773 19.2917 3.91735C19.6121 3.59698 20.0466 3.41699 20.4997 3.41699C20.9528 3.41699 21.3873 3.59698 21.7077 3.91735C22.0281 4.23773 22.208 4.67225 22.208 5.12533V6.40658H23.1596C24.9909 6.40645 26.7534 7.10425 28.0883 8.3579C29.4232 9.61155 30.2301 11.3268 30.3448 13.1545L30.7224 19.1917C30.8663 21.4936 31.6392 23.7119 32.9569 25.6048C33.2291 25.9961 33.3955 26.4513 33.4398 26.9259C33.484 27.4005 33.4047 27.8786 33.2095 28.3135C33.0143 28.7484 32.7099 29.1254 32.3259 29.4078C31.9418 29.6903 31.4912 29.8685 31.0179 29.9252L25.1976 30.6222V32.4587C25.1976 33.7046 24.7027 34.8996 23.8216 35.7806C22.9406 36.6616 21.7457 37.1566 20.4997 37.1566C19.2537 37.1566 18.0588 36.6616 17.1778 35.7806C16.2968 34.8996 15.8018 33.7046 15.8018 32.4587V30.6222L9.9815 29.9235C9.50846 29.8666 9.05816 29.6884 8.67436 29.4061C8.29057 29.1237 7.98631 28.7469 7.79117 28.3123C7.59602 27.8776 7.51661 27.3999 7.56066 26.9255C7.60471 26.4511 7.77071 25.9961 8.04254 25.6048C9.36018 23.7119 10.1331 21.4936 10.277 19.1917L10.6546 13.1545ZM17.8398 8.96908C16.6604 8.96893 15.5252 9.41832 14.6654 10.2257C13.8056 11.0332 13.2858 12.1379 13.212 13.3151L12.8361 19.3523C12.6625 22.1215 11.7324 24.79 10.1472 27.0672C10.1275 27.0955 10.1155 27.1284 10.1123 27.1627C10.109 27.197 10.1148 27.2316 10.1289 27.2631C10.143 27.2945 10.165 27.3218 10.1927 27.3423C10.2205 27.3627 10.2531 27.3756 10.2873 27.3798L16.6713 28.1468C19.215 28.4509 21.7844 28.4509 24.3281 28.1468L30.7121 27.3798C30.7464 27.3756 30.7789 27.3627 30.8067 27.3423C30.8345 27.3218 30.8565 27.2945 30.8706 27.2631C30.8847 27.2316 30.8904 27.197 30.8872 27.1627C30.884 27.1284 30.8719 27.0955 30.8522 27.0672C29.2675 24.7898 28.3381 22.1213 28.165 19.3523L27.7875 13.3151C27.7136 12.1379 27.1938 11.0332 26.334 10.2257C25.4743 9.41832 24.3391 8.96893 23.1596 8.96908H17.8398ZM20.4997 34.5941C19.321 34.5941 18.3643 33.6374 18.3643 32.4587V31.1774H22.6351V32.4587C22.6351 33.6374 21.6785 34.5941 20.4997 34.5941Z" fill="white"/>
<path d="M30.1399 2.3147C29.8839 2.53811 29.7272 2.85401 29.7041 3.19295C29.6811 3.53188 29.7935 3.8661 30.0169 4.12212L32.224 6.65045C33.0804 7.63234 33.5642 8.88411 33.5907 10.1867L33.6881 14.8282C33.6951 15.1681 33.8368 15.4912 34.0821 15.7265C34.3273 15.9618 34.656 16.09 34.9958 16.083C35.3356 16.076 35.6587 15.9343 35.894 15.689C36.1293 15.4438 36.2576 15.1151 36.2506 14.7753L36.1532 10.132C36.1135 8.2289 35.406 6.4003 34.1544 4.96604L31.9473 2.4377C31.7239 2.18178 31.408 2.02505 31.069 2.00198C30.7301 1.97892 30.3959 2.0914 30.1399 2.3147Z" fill="white"/>
</svg>
