<svg width="32" height="36" viewBox="0 0 32 36" fill="none" xmlns="http://www.w3.org/2000/svg">
<g clip-path="url(#clip0_171_105)">
<path d="M14.2996 3C12.5757 3 10.9224 3.79018 9.70342 5.1967C8.48443 6.60322 7.79961 8.51088 7.79961 10.5C7.79961 12.4891 8.48443 14.3968 9.70342 15.8033C10.9224 17.2098 12.5757 18 14.2996 18C16.0235 18 17.6768 17.2098 18.8958 15.8033C20.1148 14.3968 20.7996 12.4891 20.7996 10.5C20.7996 8.51088 20.1148 6.60322 18.8958 5.1967C17.6768 3.79018 16.0235 3 14.2996 3ZM14.2996 19.5C11.1861 19.5 8.35211 20.541 6.26821 22.008C5.22821 22.74 4.33901 23.604 3.69681 24.543C3.06501 25.464 2.59961 26.5695 2.59961 27.75C2.59961 29.0175 3.13391 30.0165 3.90351 30.729C4.63151 31.404 5.59221 31.851 6.61271 32.163C8.66411 32.7885 11.4019 33 14.2996 33L15.1901 32.9925C15.4078 32.9891 15.6213 32.9226 15.811 32.7991C16.0006 32.6757 16.1604 32.4993 16.2755 32.286C16.3907 32.0728 16.4576 31.8296 16.4701 31.5788C16.4826 31.328 16.4403 31.0776 16.3471 30.8505C15.853 29.647 15.5977 28.3316 15.5996 27C15.5996 25.122 16.0975 23.382 16.9477 21.9405C17.0741 21.7263 17.1502 21.4779 17.1687 21.2197C17.1871 20.9614 17.1473 20.7021 17.053 20.4669C16.9587 20.2317 16.8133 20.0286 16.6308 19.8776C16.4483 19.7266 16.235 19.6326 16.0117 19.605C15.4527 19.536 14.8807 19.5 14.2996 19.5ZM26.8004 23.2035C26.8871 23.0328 26.9437 22.8441 26.9669 22.6481C26.9902 22.4521 26.9796 22.2527 26.9357 22.0615C26.8919 21.8702 26.8157 21.6909 26.7116 21.5337C26.6075 21.3766 26.4774 21.2448 26.3289 21.1459C26.1805 21.0469 26.0165 20.9829 25.8465 20.9574C25.6765 20.9319 25.5038 20.9455 25.3383 20.9973C25.1729 21.0491 25.0179 21.1382 24.8824 21.2594C24.7469 21.3806 24.6335 21.5315 24.5488 21.7035L24.112 22.5765C23.6408 22.4747 23.1573 22.4742 22.6859 22.575L22.2504 21.7035C22.1657 21.5315 22.0523 21.3806 21.9168 21.2594C21.7813 21.1382 21.6264 21.0491 21.4609 20.9973C21.2955 20.9455 21.1227 20.9319 20.9527 20.9574C20.7827 20.9829 20.6188 21.0469 20.4703 21.1459C20.3218 21.2448 20.1918 21.3766 20.0876 21.5337C19.9835 21.6909 19.9073 21.8702 19.8635 22.0615C19.8197 22.2527 19.8091 22.4521 19.8323 22.6481C19.8555 22.8441 19.9121 23.0328 19.9988 23.2035L20.4343 24.0735C20.1232 24.4945 19.8822 24.9781 19.7232 25.5H18.8496C18.5048 25.5 18.1742 25.658 17.9304 25.9393C17.6866 26.2206 17.5496 26.6022 17.5496 27C17.5496 27.3978 17.6866 27.7794 17.9304 28.0607C18.1742 28.342 18.5048 28.5 18.8496 28.5H19.7219C19.8824 29.0213 20.1243 29.5043 20.4356 29.925L19.9988 30.7965C19.9121 30.9672 19.8555 31.1559 19.8323 31.3519C19.8091 31.5479 19.8197 31.7473 19.8635 31.9385C19.9073 32.1298 19.9835 32.3091 20.0876 32.4663C20.1918 32.6234 20.3218 32.7552 20.4703 32.8541C20.6188 32.9531 20.7827 33.0171 20.9527 33.0426C21.1227 33.0681 21.2955 33.0545 21.4609 33.0027C21.6264 32.9509 21.7813 32.8618 21.9168 32.7406C22.0523 32.6194 22.1657 32.4685 22.2504 32.2965L22.6872 31.425C23.1539 31.524 23.6362 31.527 24.1133 31.425L24.5488 32.2965C24.6335 32.4685 24.7469 32.6194 24.8824 32.7406C25.0179 32.8618 25.1729 32.9509 25.3383 33.0027C25.5038 33.0545 25.6765 33.0681 25.8465 33.0426C26.0165 33.0171 26.1805 32.9531 26.3289 32.8541C26.4774 32.7552 26.6075 32.6234 26.7116 32.4663C26.8157 32.3091 26.8919 32.1298 26.9357 31.9385C26.9796 31.7473 26.9902 31.5479 26.9669 31.3519C26.9437 31.1559 26.8871 30.9672 26.8004 30.7965L26.3649 29.9265C26.6795 29.5005 26.9187 29.016 27.076 28.5H27.9496C28.2944 28.5 28.6251 28.342 28.8689 28.0607C29.1126 27.7794 29.2496 27.3978 29.2496 27C29.2496 26.6022 29.1126 26.2206 28.8689 25.9393C28.6251 25.658 28.2944 25.5 27.9496 25.5H27.0773C26.9166 24.9788 26.6747 24.4959 26.3636 24.075L26.8004 23.2035Z" fill="#F9F7ED"/>
</g>
<defs>
<clipPath id="clip0_171_105">
<rect width="31.2" height="36" fill="white"/>
</clipPath>
</defs>
</svg>
